<svg xmlns="http://www.w3.org/2000/svg" fill="none" viewBox="0 0 260 34" id="Card3Dark" style="width: 100%; height: 100%; filter: none;"><rect width="260" height="34" fill="#212121" rx="6"/><circle cx="17" cy="17" r="7" fill="#fff" opacity="0.2"/><rect width="88" height="4" x="34" y="15" fill="#fff" fill-opacity="0.4" rx="2"/><path fill="#7cb6ed" fill-rule="evenodd" d="M220.406 10.888a2.895 2.895 0 0 0-2.895 2.895v6.434a2.895 2.895 0 0 0 2.895 2.895h26.699A2.895 2.895 0 0 0 250 20.217v-6.434a2.895 2.895 0 0 0-2.895-2.895h-26.699Zm9.042 5.469a1 1 0 0 0 0 2h8.937a1 1 0 0 0 0-2h-8.937Z" clip-rule="evenodd"/><rect width="259" height="33" x="0.5" y="0.5" stroke="#fff" stroke-opacity="0.2" rx="5.5"/></svg>